<svg width="38" height="32" viewBox="0 0 38 32" fill="none" xmlns="http://www.w3.org/2000/svg">
<path d="M37.3758 3.31589L35.6656 17.9649C35.6431 18.5404 35.1584 18.9888 34.5828 18.9663C34.0073 18.9438 33.5589 18.4591 33.5815 17.8835C33.5836 17.8298 33.5898 17.7764 33.6001 17.7238L35.0114 5.57155L2.62816 31.1838C2.17645 31.5411 1.52056 31.4645 1.16325 31.0127C0.805931 30.5609 0.882561 29.9051 1.33427 29.5478L33.7176 3.9356L21.5736 2.51778C20.9981 2.49531 20.5497 2.01057 20.5722 1.43501C20.5947 0.859462 21.0794 0.411111 21.655 0.433645C21.7086 0.435763 21.7621 0.441941 21.8147 0.452297L36.4638 2.16259C37.0331 2.23072 37.4406 2.74598 37.3758 3.31589Z" fill="white"/>
</svg>
