<svg width="55" height="56" viewBox="0 0 55 56" fill="none" xmlns="http://www.w3.org/2000/svg">
<circle cx="27.5" cy="28.3315" r="27.5" fill="#13D9E4"/>
<path d="M22.9525 43.8315C22.8357 43.8315 22.721 43.801 22.6196 43.743C22.5183 43.6849 22.4339 43.6014 22.3748 43.5007C19.8705 39.2344 13.1974 30.1545 13.1303 30.0632C13.035 29.9336 12.9894 29.774 13.0021 29.6136C13.0147 29.4532 13.0846 29.3027 13.199 29.1897L15.2503 27.1627C15.3618 27.0526 15.5083 26.985 15.6644 26.9717C15.8205 26.9584 15.9763 27.0003 16.1048 27.09L22.8128 31.774C27.2726 26.0448 31.4171 22.0909 34.1411 19.7612C37.1945 17.1495 39.1357 15.976 39.2169 15.9271C39.321 15.8646 39.4402 15.8315 39.5616 15.8315H42.88C43.0159 15.8315 43.1485 15.8728 43.2603 15.9499C43.3722 16.0269 43.4579 16.1362 43.5063 16.2631C43.5546 16.3901 43.5632 16.5287 43.5309 16.6606C43.4987 16.7926 43.4271 16.9116 43.3256 17.0019C38.4061 21.3834 33.2914 28.3451 29.867 33.4135C26.1445 38.9228 23.5604 43.4481 23.5347 43.4931C23.4766 43.5953 23.3925 43.6803 23.2911 43.7397C23.1897 43.799 23.0745 43.8307 22.957 43.8315L22.9525 43.8315Z" fill="black"/>
</svg>
