<svg width="698" height="698" viewBox="0 0 698 698" fill="none" xmlns="http://www.w3.org/2000/svg">
<path d="M154.901 213.875V478.805C154.901 501.742 175.884 506.712 186.376 506.33H395.26C414.946 506.33 419.486 492.949 419.296 486.259V439.237C419.296 401.619 448.291 389.157 462.789 387.627H513.722C534.782 387.627 538.521 371.953 537.758 364.116L537.186 213.875C537.186 197.36 521.543 188.643 513.722 186.35H178.364C158.22 186.35 154.328 204.7 154.901 213.875Z" fill="url(#paint0_linear_3203_5444)" style="mix-blend-mode:luminosity"/>
<circle cx="488.849" cy="456.35" r="54" fill="url(#paint1_linear_3203_5444)" style="mix-blend-mode:luminosity"/>
<path d="M507.224 445.201L505.514 459.85C505.492 460.426 505.007 460.874 504.431 460.852C503.856 460.829 503.408 460.345 503.43 459.769C503.432 459.715 503.438 459.662 503.449 459.609L504.86 447.457L472.477 473.069C472.025 473.427 471.369 473.35 471.012 472.898C470.655 472.446 470.731 471.791 471.183 471.433L503.566 445.821L491.422 444.403C490.847 444.381 490.398 443.896 490.421 443.321C490.443 442.745 490.928 442.297 491.504 442.319C491.557 442.321 491.611 442.327 491.663 442.338L506.312 444.048C506.882 444.116 507.289 444.631 507.224 445.201Z" fill="white"/>
<defs>
<linearGradient id="paint0_linear_3203_5444" x1="537.849" y1="99.8734" x2="262.752" y2="467.709" gradientUnits="userSpaceOnUse">
<stop stop-color="#131313"/>
<stop offset="1" stop-color="#44007A"/>
</linearGradient>
<linearGradient id="paint1_linear_3203_5444" x1="542.849" y1="373.164" x2="446.649" y2="480.636" gradientUnits="userSpaceOnUse">
<stop stop-color="#161616"/>
<stop offset="1" stop-color="#44007A"/>
</linearGradient>
</defs>
</svg>
