<svg width="64" height="62" viewBox="0 0 64 62" fill="none" xmlns="http://www.w3.org/2000/svg">
<path d="M7.28192 28.9945C10.6005 28.9945 13.2975 26.2975 13.2975 22.9789C13.2975 19.6604 10.6005 16.9634 7.28192 16.9634C3.96333 16.9634 1.26636 19.6604 1.26636 22.9789C1.26636 26.2975 3.96333 28.9945 7.28192 28.9945ZM7.28192 18.9686C9.49765 18.9686 11.2923 20.7632 11.2923 22.9789C11.2923 25.1947 9.49765 26.9893 7.28192 26.9893C5.06619 26.9893 3.27154 25.1947 3.27154 22.9789C3.27154 20.7632 5.06619 18.9686 7.28192 18.9686Z" fill="#E8E9E6"/>
<path d="M56.0397 28.9945C59.3583 28.9945 62.0553 26.2975 62.0553 22.9789C62.0553 19.6604 59.3583 16.9634 56.0397 16.9634C52.7211 16.9634 50.0242 19.6604 50.0242 22.9789C50.0242 26.2975 52.7211 28.9945 56.0397 28.9945ZM56.0397 18.9686C58.2555 18.9686 60.0501 20.7632 60.0501 22.9789C60.0501 25.1947 58.2555 26.9893 56.0397 26.9893C53.824 26.9893 52.0294 25.1947 52.0294 22.9789C52.0294 20.7632 53.824 18.9686 56.0397 18.9686Z" fill="#E8E9E6"/>
<path d="M56.1736 30.261C52.232 30.261 49.0255 33.4679 49.0255 37.4102V39.4528H41.8775C40.1926 39.4528 38.814 40.8316 38.814 42.5168C38.814 42.8743 38.8855 43.2215 38.9978 43.5381H24.3239C24.4362 43.2215 24.5077 42.8743 24.5077 42.5168C24.5077 40.8316 23.1291 39.4528 21.4442 39.4528H14.2961V37.4102C14.2961 33.4679 11.0897 30.261 7.14807 30.261C3.20642 30.261 0 33.4679 0 37.4102V46.6021C0 49.8294 2.15463 52.5666 5.10576 53.4551V59.8792H1.03136V61.9218H62.3005V59.8792H58.2159V53.4551C61.1671 52.5768 63.3217 49.8396 63.3217 46.6021V37.4102C63.3217 33.4679 60.1153 30.261 56.1736 30.261ZM41.8775 45.5808H42.48L41.9285 46.1323C40.9687 47.0923 39.682 47.6234 38.3137 47.6234H25.008C23.6397 47.6234 22.3632 47.0923 21.3932 46.1323L20.8417 45.5808H41.8673H41.8775ZM7.15828 59.8792V53.7513H12.264C12.8257 53.7513 13.2852 54.2109 13.2852 54.7726V58.8579C13.2852 59.2153 13.3567 59.5626 13.469 59.8792H7.15828ZM17.3698 58.8579C17.3698 59.4196 16.9103 59.8792 16.3487 59.8792C15.787 59.8792 15.3275 59.4196 15.3275 58.8579V54.7726C15.3275 53.0874 13.9489 51.7087 12.264 51.7087H7.15828C4.3399 51.7087 2.05252 49.4209 2.05252 46.6021V37.4102C2.05252 34.5914 4.3399 32.3036 7.15828 32.3036C9.97666 32.3036 12.264 34.5914 12.264 37.4102V40.4742C12.264 41.0359 12.7236 41.4955 13.2852 41.4955H21.4544C22.0161 41.4955 22.4756 41.9551 22.4756 42.5168C22.4756 43.0785 22.0161 43.5381 21.4544 43.5381H10.2217V36.3889H8.17943V44.5594C8.17943 45.1212 8.63895 45.5808 9.20059 45.5808H9.97666L14.5412 47.8685C16.2874 48.7366 17.3596 50.4933 17.3596 52.4338V58.8579H17.3698ZM26.6623 59.8792H19.2181C19.3304 59.5626 19.4019 59.2153 19.4019 58.8579V52.4338C19.4019 49.7069 17.8906 47.2557 15.45 46.0403L14.5412 45.5808H17.9621L19.9533 47.5723C21.3013 48.9205 23.0985 49.666 25.008 49.666H30.6346V55.8961C28.6331 56.3046 27.0606 57.8774 26.6521 59.8792H26.6623ZM28.7863 59.8792C29.205 58.6945 30.3282 57.8366 31.666 57.8366C33.0037 57.8366 34.1167 58.6945 34.5456 59.8792H28.7965H28.7863ZM36.6594 59.8792C36.2509 57.8774 34.6784 56.3046 32.6769 55.8961V49.666H38.3034C40.213 49.666 42.0102 48.9205 43.3582 47.5723L45.3494 45.5808H48.7703L47.8614 46.0403C45.4209 47.2557 43.9096 49.7069 43.9096 52.4338V58.8579C43.9096 59.2153 43.981 59.5626 44.0934 59.8792H36.6492H36.6594ZM56.1634 59.8792H49.8527C49.965 59.5626 50.0365 59.2153 50.0365 58.8579V54.7726C50.0365 54.2109 50.496 53.7513 51.0576 53.7513H56.1634V59.8792ZM61.2692 46.6021C61.2692 49.4209 58.9818 51.7087 56.1634 51.7087H51.0576C49.3727 51.7087 47.9942 53.0874 47.9942 54.7726V58.8579C47.9942 59.4196 47.5347 59.8792 46.973 59.8792C46.4114 59.8792 45.9519 59.4196 45.9519 58.8579V52.4338C45.9519 50.4831 47.0343 48.7366 48.7703 47.8685L53.3348 45.5808H54.1109C54.6725 45.5808 55.132 45.1212 55.132 44.5594V36.3889H53.0897V43.5381H41.8571C41.2954 43.5381 40.8359 43.0785 40.8359 42.5168C40.8359 41.9551 41.2954 41.4955 41.8571 41.4955H50.0263C50.5879 41.4955 51.0474 41.0359 51.0474 40.4742V37.4102C51.0474 34.5914 53.3348 32.3036 56.1532 32.3036C58.9716 32.3036 61.259 34.5914 61.259 37.4102V46.6021H61.2692Z" fill="#E8E9E6"/>
<path d="M34.749 23.1381C35.9222 23.1381 37.085 22.953 38.2273 22.5827L46.7997 25.1541C46.9026 25.1849 46.9952 25.1952 47.0981 25.1952C47.4069 25.1952 47.7053 25.0512 47.9008 24.8044C48.1581 24.4752 48.1993 24.0227 47.9935 23.6524L44.5048 17.5531C45.5339 15.8148 46.069 13.8503 46.069 11.8138C46.069 5.5705 40.9956 0.499756 34.749 0.499756C28.5024 0.499756 23.429 5.5705 23.429 11.8138C23.429 18.0571 28.5024 23.1278 34.749 23.1278V23.1381ZM34.749 2.56714C39.8533 2.56714 44.0109 6.72248 44.0109 11.8241C44.0109 13.6652 43.4757 15.4343 42.4466 16.9668C42.2305 17.296 42.2099 17.7074 42.4055 18.0468L44.9165 22.4387L38.4949 20.5153C38.4023 20.4845 38.2994 20.4742 38.1965 20.4742C38.0833 20.4742 37.9598 20.4947 37.8466 20.5359C36.8278 20.8959 35.7781 21.081 34.7387 21.081C29.6344 21.081 25.4769 16.9257 25.4769 11.8241C25.4769 6.72248 29.6344 2.56714 34.7387 2.56714H34.749Z" fill="#E8E9E6"/>
<path d="M29.7612 10.6313H31.6609V12.531H29.7612V10.6313Z" fill="#E8E9E6"/>
<path d="M33.5603 10.6313H35.46V12.531H33.5603V10.6313Z" fill="#E8E9E6"/>
<path d="M37.9929 10.6313H39.8926V12.531H37.9929V10.6313Z" fill="#E8E9E6"/>
<path d="M15.197 30.261H17.0967V32.1606H15.197V30.261Z" fill="#E8E9E6"/>
<path d="M19.6296 30.261H21.5293V32.1606H19.6296V30.261Z" fill="#E8E9E6"/>
<path d="M23.429 30.261H25.3286V32.1606H23.429V30.261Z" fill="#E8E9E6"/>
</svg>
