<svg width="82" height="77" viewBox="0 0 82 77" fill="none" xmlns="http://www.w3.org/2000/svg">
<path d="M80.9821 41.7888C80.7038 41.2684 80.1615 40.9435 79.5714 40.9437H77.8986V38.3088C77.893 31.8965 74.059 26.107 68.1574 23.5993C73.1891 20.1572 74.4779 13.2879 71.036 8.25597C67.5939 3.22426 60.7246 1.93548 55.6927 5.3774C50.661 8.81951 49.3722 15.6888 52.8141 20.7207C53.5868 21.8504 54.563 22.8264 55.6927 23.5993C49.7911 26.1072 45.9571 31.8965 45.9515 38.3088V40.9409H43.1037C42.2207 40.9409 41.5049 41.6568 41.5049 42.5398C41.5049 43.4228 42.2207 44.1386 43.1037 44.1386H76.5802L57.1023 73.2837H46.2301V69.3687C46.2207 60.8629 40.9262 53.2585 32.9522 50.2984C39.5686 46.4041 41.7755 37.8836 37.8813 31.2672C33.9871 24.6508 25.4665 22.4439 18.8501 26.3382C12.2338 30.2324 10.0269 38.7529 13.9211 45.3693C15.1188 47.4043 16.8151 49.1006 18.8501 50.2984C10.8747 53.2578 5.57872 60.8621 5.56851 69.3687V73.2837H1.76849C0.885493 73.2837 0.169678 73.9995 0.169678 74.8825C0.169678 75.7655 0.885493 76.4813 1.76849 76.4813H57.9575C58.4914 76.4811 58.9902 76.2145 59.2869 75.7706L80.9008 43.4279C81.2275 42.9381 81.2587 42.3084 80.9821 41.7888ZM54.0844 14.5294C54.0648 10.1989 57.5593 6.67266 61.8895 6.65303C66.2199 6.63341 69.7462 10.1279 69.7659 14.4581C69.7855 18.7883 66.291 22.3148 61.9608 22.3345C61.949 22.3345 61.937 22.3345 61.9252 22.3345C57.6068 22.3398 54.0992 18.848 54.0844 14.5294ZM74.7008 40.9409H49.1491V38.3088C49.0892 31.2529 54.7608 25.4844 61.8167 25.4246C68.8727 25.3647 74.6412 31.0363 74.701 38.0922C74.7016 38.1644 74.7016 38.2366 74.701 38.3088L74.7008 40.9409ZM15.1981 38.3828C15.1704 32.4716 19.9398 27.6572 25.8509 27.6293C31.7621 27.6014 36.5766 32.371 36.6045 38.2821C36.6321 44.1933 31.8628 49.0078 25.9516 49.0357C25.9333 49.0357 25.9151 49.0359 25.8968 49.0359C20.0039 49.0408 15.2183 44.2757 15.1981 38.3828ZM43.0358 73.2837H8.76614V69.3687C8.69726 59.9053 16.3128 52.178 25.7762 52.1089C35.2395 52.0398 42.9669 59.6556 43.036 69.1189C43.0366 69.2021 43.0366 69.2855 43.036 69.3687V73.2837H43.0358Z" fill="#E8E9E6"/>
<path d="M34.9877 14.9542L41.1547 18.1328C41.941 18.536 42.905 18.2254 43.3083 17.4393C43.4238 17.2141 43.4843 16.9645 43.4845 16.7111V6.3952C43.4845 2.86302 40.6212 -0.000244141 37.089 -0.000244141H23.1559C19.6238 -0.000244141 16.7605 2.86302 16.7605 6.3952V8.56148C16.763 12.0925 19.6249 14.9544 23.1559 14.9569L34.9877 14.9542ZM19.9583 8.56148V6.3952C19.9583 4.62921 21.3899 3.19738 23.1561 3.19738H37.092C38.858 3.19738 40.2898 4.62901 40.2898 6.3952V14.0881L36.1117 11.9337C35.8854 11.8178 35.635 11.7569 35.3807 11.7566H23.1561C21.3911 11.7566 19.9599 10.3265 19.9583 8.56148Z" fill="#E8E9E6"/>
</svg>
