<svg width="56" height="51" viewBox="0 0 56 51" fill="none" xmlns="http://www.w3.org/2000/svg">
<path d="M55.5483 30.0885L54.5116 29.4971L54.5117 23.4083C54.5117 23.0037 54.2362 22.6496 53.8404 22.5458L40.8937 19.1478C40.7417 19.108 40.5819 19.108 40.43 19.1478L39.6841 19.3436V16.1353C40.6371 15.2507 41.1044 14.2446 41.1044 13.0864V7.46904C41.1044 6.3259 40.1631 5.39596 39.0062 5.39596H31.3922V3.82244C31.3922 1.97059 29.8675 0.464111 27.9934 0.464111H20.543C18.6687 0.464111 17.1441 1.9707 17.1441 3.82244V5.39596H9.52992C8.373 5.39596 7.43184 6.3259 7.43184 7.46904V13.0864C7.43184 14.2446 7.89915 15.2507 8.85205 16.1352V25.5931H0.903224C0.663644 25.5931 0.433999 25.6872 0.264532 25.8545C0.0951773 26.022 0 26.2489 0 26.4856C0.000112903 32.8906 2.52429 38.9121 7.10792 43.441C11.6916 47.9699 17.7857 50.4641 24.2679 50.4641C29.8206 50.4641 35.0461 48.6604 39.3794 45.248C43.4306 42.0579 46.3712 37.6236 47.7068 32.7116C48.3059 32.5992 48.9607 32.4779 49.6771 32.3485C50.1061 32.2711 50.4179 31.9016 50.4179 31.4707V25.1691L52.7054 24.5687L52.7053 29.4971L51.6687 30.0885C51.3892 30.2479 51.2171 30.5424 51.2171 30.8613V35.3464C51.2171 35.6846 51.4106 35.9939 51.7169 36.1448C52.023 36.296 52.3896 36.2628 52.6633 36.0596L53.6085 35.3572L54.5539 36.0596C54.7135 36.178 54.9045 36.2387 55.0969 36.2387C55.2344 36.2387 55.3725 36.2078 55.5002 36.1447C55.8065 35.9936 56 35.6845 56 35.3463V30.8613C55.9999 30.5424 55.8278 30.2479 55.5483 30.0885ZM40.6618 20.9337L50.0903 23.4084L40.6618 25.8831L31.2333 23.4084L40.6618 20.9337ZM35.8125 39.1146C36.7247 37.3378 37.439 35.4679 37.9493 33.52C39.0449 33.7041 39.8536 33.7964 40.6618 33.7964C41.9546 33.7964 43.2478 33.5607 45.7175 33.0895C44.7342 36.2274 43.0908 39.0301 40.9614 41.3648C39.4026 40.46 37.6665 39.7095 35.8125 39.1146ZM34.0532 38.6052C31.2391 37.8746 28.2147 37.4769 25.171 37.4112V29.2861H30.9058V31.4707C30.9058 31.9016 31.2176 32.2711 31.6466 32.3485C33.1523 32.6205 34.3943 32.8578 35.3923 33.0484C35.6644 33.1004 35.9218 33.1495 36.1675 33.196C35.661 35.0925 34.9509 36.9032 34.0532 38.6052ZM23.3646 37.4113C20.3282 37.4769 17.311 37.8729 14.5026 38.6003C12.9773 35.7227 11.9919 32.5582 11.6341 29.2542C11.7822 29.2749 11.9333 29.2862 12.0872 29.2862H23.3647V37.4113H23.3646ZM23.3646 39.1613V48.2924C20.1084 46.1655 17.4147 43.3878 15.4192 40.1889C17.9489 39.5656 20.6482 39.2235 23.3646 39.1613ZM20.3595 48.3426C15.9758 47.5795 12.0271 45.5551 8.91019 42.6648C10.3459 41.8734 11.9302 41.2157 13.6135 40.6916C15.3565 43.6032 17.6344 46.2024 20.3595 48.3426ZM25.171 39.1613C27.8966 39.2237 30.6048 39.5681 33.1418 40.1952C31.1458 43.4021 28.4456 46.1592 25.171 48.2931V39.1613ZM27.4833 22.5458C27.0875 22.6497 26.812 23.0037 26.812 23.4083C26.812 23.8129 27.0875 24.167 27.4833 24.2707L30.9058 25.169V27.5012H12.0872C11.2992 27.5012 10.6584 26.8678 10.6584 26.0893V17.3625C13.267 18.6407 17.5596 19.1153 20.4503 19.2909C20.6562 21.1927 22.2896 22.6789 24.268 22.6789C26.2472 22.6789 27.8811 21.1916 28.086 19.2888C32.3744 19.0267 35.8496 18.3403 37.8776 17.3604V19.8176L27.4833 22.5458ZM22.2344 18.8847C22.2344 17.7767 23.1467 16.8755 24.268 16.8755C25.3894 16.8755 26.3015 17.7767 26.3015 18.8847C26.3015 19.9927 25.3894 20.894 24.268 20.894C23.1467 20.894 22.2344 19.9927 22.2344 18.8847ZM16.8509 7.18088H31.6851V10.1277C31.6851 10.4463 31.4125 10.7156 31.09 10.7156H17.4459C17.1234 10.7156 16.8509 10.4464 16.8509 10.1277V7.18088ZM27.3764 5.39596H21.1597V4.43188H27.3764V5.39596ZM18.9504 3.82244C18.9504 2.95486 19.6649 2.24903 20.5429 2.24903H27.9933C28.8712 2.24903 29.5857 2.95486 29.5857 3.82244V5.39596H29.1828V3.82244C29.1828 3.17429 28.6492 2.64707 27.9934 2.64707H20.543C19.887 2.64707 19.3534 3.1744 19.3534 3.82244V5.39596H18.9505V3.82244H18.9504ZM9.23806 7.46904C9.23806 7.31285 9.37163 7.18088 9.52969 7.18088H15.0444V10.1277C15.0444 11.436 16.1218 12.5005 17.4459 12.5005H31.0901C32.4143 12.5005 33.4917 11.436 33.4917 10.1277V7.18088H39.0063C39.1644 7.18088 39.298 7.31285 39.298 7.46904V13.0864C39.298 13.9911 38.7497 14.7555 37.572 15.4917C35.9526 16.5041 32.3485 17.2496 27.848 17.5148C27.2907 16.098 25.8967 15.0906 24.2682 15.0906C22.6389 15.0906 21.2443 16.0989 20.6874 17.5167C16.1931 17.254 12.5892 16.5077 10.9643 15.4917C9.78666 14.7555 9.23829 13.9913 9.23829 13.0864V7.46904H9.23806ZM9.12742 27.378C9.27735 27.7131 9.48385 28.0178 9.73495 28.2809C9.98672 32.1083 11.0266 35.7835 12.7356 39.1107C10.8877 39.7028 9.15689 40.4494 7.60153 41.3491C4.18983 37.6178 2.04004 32.7395 1.8244 27.378H9.12742ZM28.1795 48.3449C30.2352 46.7356 32.0447 44.8611 33.5812 42.7439C34.0644 42.078 34.5139 41.394 34.933 40.6949C36.6242 41.2221 38.2154 41.8842 39.656 42.6814C36.5189 45.5912 32.5499 47.5906 28.1795 48.3449ZM48.6114 30.7277C47.4255 30.9452 46.4222 31.1369 45.5886 31.2962C40.6619 32.2373 40.6619 32.2373 35.7353 31.2962C34.9016 31.1369 33.8983 30.9452 32.7125 30.7277V25.6433L40.4301 27.6689C40.5821 27.7087 40.742 27.7087 40.8938 27.6689L48.6114 25.6433V30.7277ZM54.1934 33.5587L54.1512 33.5274C53.9904 33.408 53.7995 33.3483 53.6084 33.3483C53.4172 33.3483 53.2262 33.408 53.0654 33.5274L53.0234 33.5587V31.3765L53.6084 31.0428L54.1934 31.3766V33.5587Z" fill="#E9E9E9"/>
</svg>
