<svg width="40" height="56" viewBox="0 0 40 56" fill="none" xmlns="http://www.w3.org/2000/svg">
<path d="M12.0256 21.5083C11.8065 21.5088 11.5924 21.4424 11.412 21.3181C11.2317 21.1937 11.0935 21.0173 11.016 20.8124L6.43302 8.70445L2.46188 10.2074L6.19004 20.0498C6.29116 20.3169 6.28203 20.6133 6.16464 20.8737C6.04725 21.1341 5.83122 21.3372 5.56408 21.4383C5.29694 21.5395 5.00057 21.5303 4.74016 21.4129C4.47976 21.2955 4.27665 21.0795 4.17553 20.8124L0.0697811 9.96175C0.0196961 9.82948 -0.00384236 9.68864 0.000510038 9.54726C0.00486244 9.40589 0.0370206 9.26676 0.0951476 9.13782C0.153275 9.00888 0.236232 8.89265 0.339283 8.79577C0.442333 8.69889 0.563457 8.62326 0.695739 8.5732L6.67734 6.30764C6.80961 6.25743 6.95048 6.23378 7.09189 6.23804C7.23331 6.24229 7.3725 6.27437 7.50151 6.33244C7.63052 6.39051 7.74683 6.47343 7.84378 6.57646C7.94074 6.67949 8.01644 6.80062 8.06656 6.93292L13.0332 20.0484C13.095 20.2116 13.1163 20.3875 13.0951 20.5607C13.0739 20.734 13.011 20.8995 12.9116 21.043C12.8123 21.1865 12.6795 21.3037 12.5248 21.3846C12.3701 21.4654 12.1981 21.5074 12.0236 21.507L12.0256 21.5083Z" fill="#E8E9E6"/>
<path d="M1.07747 10.6583C0.933864 10.6584 0.791705 10.6297 0.659352 10.574C0.526999 10.5183 0.407125 10.4366 0.306782 10.3339C0.206439 10.2312 0.127655 10.1094 0.075064 9.9758C0.0224728 9.84218 -0.0028626 9.69939 0.000547931 9.55583L0.20247 1.05222C0.207386 0.837908 0.27615 0.629942 0.399957 0.454944C0.523764 0.279945 0.696982 0.145876 0.897433 0.0699029C1.09788 -0.00607064 1.31645 -0.0204926 1.52515 0.0284834C1.73384 0.0774593 1.92317 0.187605 2.0689 0.344818L7.85127 6.58421C7.97122 6.71362 8.05753 6.87052 8.10261 7.04111C8.14769 7.21171 8.15017 7.39076 8.10982 7.56254C8.06947 7.73431 7.98753 7.89354 7.8712 8.02622C7.75488 8.15889 7.60774 8.26096 7.44272 8.32343L1.46112 10.5883C1.33862 10.635 1.20857 10.6588 1.07747 10.6583ZM2.289 3.75595L2.1914 8.00978L5.18187 6.87767L2.289 3.75595Z" fill="#E8E9E6"/>
<path d="M23.6697 21.5082C23.3841 21.5082 23.1101 21.3947 22.9082 21.1928C22.7062 20.9908 22.5928 20.7169 22.5928 20.4313V10.2006C22.5928 9.64058 22.3703 9.10353 21.9743 8.70756C21.5784 8.31159 21.0413 8.08914 20.4813 8.08914C19.9213 8.08914 19.3843 8.31159 18.9883 8.70756C18.5924 9.10353 18.3699 9.64058 18.3699 10.2006V20.4313C18.3699 20.7169 18.2564 20.9908 18.0545 21.1928C17.8525 21.3947 17.5786 21.5082 17.293 21.5082C17.0074 21.5082 16.7334 21.3947 16.5315 21.1928C16.3295 20.9908 16.2161 20.7169 16.2161 20.4313V10.2006C16.2161 9.06935 16.6654 7.98446 17.4653 7.18457C18.2652 6.38468 19.3501 5.9353 20.4813 5.9353C21.6125 5.9353 22.6974 6.38468 23.4973 7.18457C24.2972 7.98446 24.7466 9.06935 24.7466 10.2006V20.4313C24.7466 20.7169 24.6331 20.9908 24.4312 21.1928C24.2292 21.3947 23.9553 21.5082 23.6697 21.5082Z" fill="#E8E9E6"/>
<path d="M23.6697 13.2954H17.293C17.0074 13.2954 16.7334 13.182 16.5315 12.98C16.3295 12.7781 16.2161 12.5041 16.2161 12.2185C16.2161 11.9329 16.3295 11.659 16.5315 11.457C16.7334 11.2551 17.0074 11.1416 17.293 11.1416H23.6697C23.9553 11.1416 24.2292 11.2551 24.4312 11.457C24.6331 11.659 24.7466 11.9329 24.7466 12.2185C24.7466 12.5041 24.6331 12.7781 24.4312 12.98C24.2292 13.182 23.9553 13.2954 23.6697 13.2954Z" fill="#E8E9E6"/>
<path d="M28.8741 21.5083C28.6999 21.5086 28.5282 21.4666 28.3738 21.3859C28.2194 21.3052 28.0869 21.1883 27.9876 21.0451C27.8883 20.902 27.8253 20.7369 27.8038 20.564C27.7824 20.3911 27.8032 20.2156 27.8645 20.0525L32.6521 7.30718C32.7032 7.17095 32.7814 7.0465 32.882 6.94133C32.9825 6.83616 33.1033 6.75246 33.2371 6.69528C33.3709 6.6381 33.5149 6.60863 33.6604 6.60864C33.8059 6.60865 33.9499 6.63815 34.0837 6.69535L39.0355 8.81082C39.2905 8.91981 39.4937 9.12297 39.6026 9.378C39.7116 9.63302 39.718 9.92025 39.6204 10.1799L35.6291 20.8097C35.5794 20.9423 35.504 21.0638 35.4074 21.1672C35.3107 21.2707 35.1946 21.3541 35.0657 21.4127C34.9368 21.4713 34.7976 21.5039 34.6561 21.5087C34.5145 21.5135 34.3735 21.4904 34.2409 21.4407C34.1083 21.391 33.9868 21.3156 33.8833 21.219C33.7799 21.1223 33.6965 21.0062 33.6379 20.8773C33.5793 20.7484 33.5466 20.6092 33.5418 20.4677C33.537 20.3262 33.5602 20.1851 33.6099 20.0525L37.2445 10.3865L34.2749 9.11842L29.8831 20.8097C29.806 21.015 29.6682 21.192 29.4879 21.3168C29.3076 21.4417 29.0934 21.5085 28.8741 21.5083Z" fill="#E8E9E6"/>
<path d="M30.837 56.0002H8.53071C8.29187 56.0003 8.05976 55.9211 7.87091 55.7748C7.68205 55.6286 7.54716 55.4238 7.48745 55.1925L0.519792 27.9331C0.478692 27.7739 0.474582 27.6074 0.507777 27.4464C0.540973 27.2854 0.610593 27.1341 0.711301 27.0041C0.81201 26.8742 0.941132 26.769 1.08877 26.6967C1.23641 26.6244 1.39865 26.5868 1.56306 26.5869H37.8047C37.9691 26.5868 38.1313 26.6244 38.279 26.6967C38.4266 26.769 38.5557 26.8742 38.6564 27.0041C38.7571 27.1341 38.8268 27.2854 38.86 27.4464C38.8932 27.6074 38.889 27.7739 38.8479 27.9331L31.8803 55.1925C31.8206 55.4238 31.6857 55.6286 31.4968 55.7748C31.308 55.9211 31.0759 56.0003 30.837 56.0002ZM9.36599 53.8464H30.0011L36.4182 28.7407H2.95093L9.36599 53.8464Z" fill="#E8E9E6"/>
<path d="M37.8046 28.7402H1.563C1.27739 28.7402 1.00347 28.6267 0.801505 28.4248C0.599544 28.2228 0.486084 27.9489 0.486084 27.6633V20.4304C0.486084 20.1448 0.599544 19.8709 0.801505 19.6689C1.00347 19.467 1.27739 19.3535 1.563 19.3535H37.8046C38.0903 19.3535 38.3642 19.467 38.5661 19.6689C38.7681 19.8709 38.8815 20.1448 38.8815 20.4304V27.6633C38.8815 27.9489 38.7681 28.2228 38.5661 28.4248C38.3642 28.6267 38.0903 28.7402 37.8046 28.7402ZM2.63992 26.5864H36.7277V21.5073H2.63992V26.5864Z" fill="#E8E9E6"/>
<path d="M7.92579 28.7407C7.64018 28.7407 7.36626 28.6273 7.1643 28.4253C6.96234 28.2234 6.84888 27.9494 6.84888 27.6638C6.84888 27.4508 6.91204 27.2426 7.03037 27.0655C7.1487 26.8884 7.3169 26.7504 7.51368 26.6689C7.71046 26.5874 7.92699 26.5661 8.13589 26.6076C8.34479 26.6492 8.53668 26.7517 8.68729 26.9023C8.8379 27.0529 8.94047 27.2448 8.98202 27.4537C9.02357 27.6626 9.00225 27.8792 8.92074 28.0759C8.83923 28.2727 8.7012 28.4409 8.5241 28.5593C8.347 28.6776 8.13879 28.7407 7.92579 28.7407Z" fill="#E8E9E6"/>
<path d="M14.7648 28.7407C14.6199 28.7408 14.4765 28.7114 14.3433 28.6545C14.21 28.5976 14.0896 28.5143 13.9895 28.4096C13.8189 28.2295 13.7158 27.996 13.6975 27.7487C13.6792 27.5013 13.7469 27.2552 13.889 27.052C14.0312 26.8487 14.2391 26.7008 14.4777 26.6331C14.7164 26.5655 14.971 26.5823 15.1987 26.6806C15.4264 26.779 15.6131 26.953 15.7274 27.1732C15.8416 27.3933 15.8764 27.6461 15.8258 27.8889C15.7752 28.1318 15.6423 28.3496 15.4496 28.5058C15.2569 28.662 15.0162 28.7469 14.7682 28.7461L14.7648 28.7407Z" fill="#E8E9E6"/>
<path d="M17.293 28.7407C17.0074 28.7407 16.7334 28.6273 16.5315 28.4253C16.3295 28.2234 16.2161 27.9494 16.2161 27.6638C16.2161 27.4508 16.2792 27.2426 16.3976 27.0655C16.5159 26.8884 16.6841 26.7504 16.8809 26.6689C17.0776 26.5874 17.2942 26.5661 17.5031 26.6076C17.712 26.6492 17.9039 26.7517 18.0545 26.9023C18.2051 27.0529 18.3077 27.2448 18.3492 27.4537C18.3908 27.6626 18.3694 27.8792 18.2879 28.0759C18.2064 28.2727 18.0684 28.4409 17.8913 28.5593C17.7142 28.6776 17.506 28.7407 17.293 28.7407Z" fill="#E8E9E6"/>
<path d="M23.6694 28.7407C23.3838 28.7407 23.1099 28.6273 22.908 28.4253C22.706 28.2234 22.5925 27.9494 22.5925 27.6638C22.5925 27.4508 22.6557 27.2426 22.774 27.0655C22.8924 26.8884 23.0605 26.7504 23.2573 26.6689C23.4541 26.5874 23.6706 26.5661 23.8795 26.6076C24.0884 26.6492 24.2803 26.7517 24.4309 26.9023C24.5816 27.0529 24.6841 27.2448 24.7257 27.4537C24.7672 27.6626 24.7459 27.8792 24.6644 28.0759C24.5829 28.2727 24.4448 28.4409 24.2677 28.5593C24.0906 28.6776 23.8824 28.7407 23.6694 28.7407Z" fill="#E8E9E6"/>
<path d="M27.0587 28.7407C26.8095 28.7407 26.5681 28.6543 26.3756 28.4962C26.183 28.3382 26.0512 28.1182 26.0026 27.8739C25.954 27.6295 25.9917 27.3759 26.1091 27.1562C26.2265 26.9365 26.4165 26.7643 26.6466 26.6689C26.8768 26.5736 27.1329 26.561 27.3713 26.6332C27.6097 26.7055 27.8157 26.8582 27.9542 27.0653C28.0926 27.2725 28.155 27.5212 28.1306 27.7691C28.1063 28.017 27.9967 28.2489 27.8206 28.4251C27.7206 28.5252 27.6018 28.6046 27.4711 28.6587C27.3403 28.7129 27.2002 28.7408 27.0587 28.7407Z" fill="#E8E9E6"/>
</svg>
