<svg width="49" height="47" viewBox="0 0 49 47" fill="none" xmlns="http://www.w3.org/2000/svg">
<path fill-rule="evenodd" clip-rule="evenodd" d="M25.5257 3.4546C27.3684 3.89261 29.1283 4.62239 30.7412 5.61437L34.1303 4.11086L38.1247 8.10076L36.6199 11.4849C37.6134 13.0963 38.344 14.8548 38.7825 16.696L42.2402 18.0253V23.6678L41.0703 24.1176C40.4139 23.4772 39.5173 23.0816 38.5309 23.0816H33.7858C33.9159 22.3562 33.9838 21.6093 33.9838 20.8466C33.9838 13.888 28.3364 8.247 21.37 8.247C14.4036 8.247 8.7562 13.888 8.7562 20.8466C8.7562 27.6402 14.1394 33.1771 20.8773 33.4357V34.3633C20.8773 35.4896 21.3148 36.447 22.037 37.2321V41.6931H18.5456L17.2144 38.2385C15.3717 37.8005 13.6118 37.0707 11.9989 36.0787L8.6098 37.5823L4.6154 33.5924L6.1202 30.2081C5.1267 28.5969 4.3962 26.8381 3.9576 24.9971L0.5 23.6679V18.0254L3.9582 16.6958C4.3967 14.855 5.1273 13.0968 6.1206 11.4857L4.6155 8.10086L8.6098 4.11086L11.9989 5.61437C13.6118 4.62239 15.3717 3.89261 17.2144 3.4546L18.5457 0H24.1944L25.5257 3.4546ZM28.6942 28.7513V31.9208C28.6942 32.5929 29.2447 33.1428 29.9176 33.1428H41.0597C41.7326 33.1428 42.2831 32.5928 42.2831 31.9208V28.7513H28.6942ZM33.0905 39.1499C33.0905 40.473 34.1642 41.5454 35.4887 41.5454C36.8132 41.5454 37.8869 40.473 37.8869 39.1499C37.8869 37.8311 36.8174 36.7545 35.4887 36.7545C34.16 36.7546 33.0905 37.8311 33.0905 39.1499ZM47.3401 36.5473C48.0252 35.9855 48.5 35.2841 48.5 34.3633V29.726C48.5 29.1892 48.0616 28.7513 47.5242 28.7513H43.8832V31.9208C43.8832 33.4749 42.6157 34.741 41.0598 34.741H29.9176C28.3617 34.741 27.0942 33.475 27.0942 31.9208V28.7513H23.4531C22.9157 28.7513 22.4774 29.1892 22.4774 29.726V34.3633C22.4774 35.284 22.9522 35.9855 23.6371 36.5472C25.4975 38.0724 29.2078 38.4974 31.5175 38.686C31.7478 36.6996 33.438 35.1564 35.4887 35.1564C37.5387 35.1564 39.2284 36.6986 39.4596 38.684C41.7651 38.495 45.4829 38.07 47.3401 36.5473ZM23.6371 38.4769V45.0977C23.6371 46.144 24.4941 47 25.5415 47H45.4356C46.4831 47 47.34 46.144 47.34 45.0977V38.477C45.6295 39.434 42.6462 40.0425 39.3172 40.303C38.8217 41.9462 37.2949 43.1436 35.4886 43.1436C33.6823 43.1436 32.1555 41.9462 31.6599 40.303C28.3313 40.0427 25.348 39.4342 23.6371 38.4769ZM40.5688 27.1531V26.7155C40.5688 25.5958 39.6518 24.6798 38.5309 24.6798H32.4467C31.3258 24.6798 30.4087 25.5958 30.4087 26.7155V27.1531H32.2129V26.7155C32.2129 26.5906 32.3218 26.4819 32.4468 26.4819H38.531C38.656 26.4819 38.7648 26.5906 38.7648 26.7155V27.1531H40.5688ZM14.0455 19.3075C13.1801 20.172 13.18 21.5866 14.0455 22.451L17.5067 25.9083C18.4851 26.8856 19.961 27.3335 21.0643 26.2314L28.6949 18.6094C29.5603 17.7449 29.5603 16.3304 28.6949 15.466V15.4659C27.8295 14.6014 26.4133 14.6014 25.5478 15.4659L19.4473 21.5596L17.1926 19.3074C16.327 18.4429 14.9109 18.443 14.0455 19.3075Z" fill="url(#paint0_linear_172_14855)"/>
<defs>
<linearGradient id="paint0_linear_172_14855" x1="-20" y1="-20" x2="63" y2="52" gradientUnits="userSpaceOnUse">
<stop stop-color="#DEDEDE"/>
<stop offset="1" stop-color="#00A8F3" stop-opacity="0.62"/>
</linearGradient>
</defs>
</svg>
