<svg width="49" height="48" viewBox="0 0 49 48" fill="none" xmlns="http://www.w3.org/2000/svg">
<path d="M9.88644 28.5944H18.7987V26.7138C18.7987 23.5042 16.1968 20.9023 12.9873 20.9023H6.31143C3.10187 20.9023 0.5 23.5042 0.5 26.7138V35.788H9.88644V28.5944Z" fill="url(#paint0_linear_174_14933)"/>
<path d="M9.64929 17.9661C13.3646 17.9661 16.3765 14.9542 16.3765 11.2389C16.3765 7.52358 13.3646 4.51172 9.64929 4.51172C5.93398 4.51172 2.92212 7.52358 2.92212 11.2389C2.92212 14.9542 5.93398 17.9661 9.64929 17.9661Z" fill="url(#paint1_linear_174_14933)"/>
<path d="M12.6912 31.4014H17.5137V46.1301H12.6912V31.4014Z" fill="url(#paint2_linear_174_14933)"/>
<path d="M34.6659 29.742H32.7314V25.187C32.7314 22.5445 30.5894 20.4023 27.9468 20.4023C26.8546 20.4023 25.9692 21.2878 25.9692 22.3801V27.0763L23.7298 29.742L20.3185 31.401V46.1298L23.4611 47.9998H34.6659C37.281 47.9998 39.401 45.8798 39.401 43.2646V34.4772C39.401 31.8621 37.281 29.742 34.6659 29.742Z" fill="url(#paint3_linear_174_14933)"/>
<path d="M23.0353 6.44702C25.5695 8.06639 27.7282 10.2251 29.3476 12.7593C30.967 10.225 33.1256 8.06639 35.6599 6.44702C33.1257 4.82766 30.967 2.66904 29.3476 0.134766C27.7282 2.66904 25.5695 4.82766 23.0353 6.44702Z" fill="url(#paint4_linear_174_14933)"/>
<path d="M48.3904 16.5642C45.8562 14.9448 43.6975 12.7861 42.078 10.252C40.4586 12.7862 38.2999 14.9449 35.7657 16.5642C38.2999 18.1836 40.4585 20.3422 42.078 22.8765C43.6975 20.3422 45.8561 18.1836 48.3904 16.5642Z" fill="url(#paint5_linear_174_14933)"/>
<defs>
<linearGradient id="paint0_linear_174_14933" x1="-2.74782" y1="18.3725" x2="23.8817" y2="49.3879" gradientUnits="userSpaceOnUse">
<stop stop-color="white"/>
<stop offset="0.0001" stop-color="white"/>
<stop offset="1" stop-color="#04D2FF" stop-opacity="0"/>
</linearGradient>
<linearGradient id="paint1_linear_174_14933" x1="0.534122" y1="2.2251" x2="24.8479" y2="25.2616" gradientUnits="userSpaceOnUse">
<stop stop-color="white"/>
<stop offset="0.0001" stop-color="white"/>
<stop offset="1" stop-color="#04D2FF" stop-opacity="0"/>
</linearGradient>
<linearGradient id="paint2_linear_174_14933" x1="11.8352" y1="28.8982" x2="26.9217" y2="33.5784" gradientUnits="userSpaceOnUse">
<stop stop-color="white"/>
<stop offset="0.0001" stop-color="white"/>
<stop offset="1" stop-color="#04D2FF" stop-opacity="0"/>
</linearGradient>
<linearGradient id="paint3_linear_174_14933" x1="16.9315" y1="15.7121" x2="62.7202" y2="45.7098" gradientUnits="userSpaceOnUse">
<stop stop-color="white"/>
<stop offset="0.0001" stop-color="white"/>
<stop offset="1" stop-color="#04D2FF" stop-opacity="0"/>
</linearGradient>
<linearGradient id="paint4_linear_174_14933" x1="20.7946" y1="-2.01082" x2="43.6087" y2="19.605" gradientUnits="userSpaceOnUse">
<stop stop-color="white"/>
<stop offset="0.0001" stop-color="white"/>
<stop offset="1" stop-color="#04D2FF" stop-opacity="0"/>
</linearGradient>
<linearGradient id="paint5_linear_174_14933" x1="33.525" y1="8.10637" x2="56.3392" y2="29.7222" gradientUnits="userSpaceOnUse">
<stop stop-color="white"/>
<stop offset="0.0001" stop-color="white"/>
<stop offset="1" stop-color="#04D2FF" stop-opacity="0"/>
</linearGradient>
</defs>
</svg>
