<svg width="45" height="43" viewBox="0 0 45 43" fill="none" xmlns="http://www.w3.org/2000/svg">
<path fill-rule="evenodd" clip-rule="evenodd" d="M5.66729 20.4873C5.66729 24.4509 7.26555 28.07 9.89385 30.8244C9.20566 32.0787 8.81962 33.496 8.81962 34.9937V36.4587C3.74974 32.7234 0.5 26.9561 0.5 20.4873C0.5 16.8917 1.50207 13.5134 3.26359 10.5817C3.35558 10.4304 3.5017 10.3376 3.6857 10.3142C3.8724 10.2907 4.04107 10.3426 4.17185 10.4638L7.15822 13.2325C7.3323 13.3939 7.37559 13.628 7.27097 13.8371C6.24274 15.854 5.66729 18.1075 5.66729 20.4873ZM41.7346 10.5817C41.6453 10.4304 41.4965 10.3376 41.3125 10.3142C41.1285 10.2907 40.9571 10.3426 40.8263 10.4638L37.8427 13.2325C37.6659 13.3939 37.6226 13.628 37.7272 13.8371C38.7555 15.854 39.33 18.1083 39.33 20.4882C39.33 24.4517 37.7344 28.0708 35.1062 30.8252C35.7916 32.0795 36.1804 33.4969 36.1804 34.9945V36.4595C41.2476 32.7242 44.5 26.957 44.5 20.4882C44.5009 16.8917 43.4961 13.5143 41.7346 10.5817ZM38.061 6.28954C38.061 6.14237 38.0023 6.01444 37.8896 5.91242C33.921 2.31176 28.4912 0.0908203 22.5005 0.0908203C16.5097 0.0908203 11.0772 2.31176 7.11132 5.91242C6.99587 6.01444 6.93995 6.14237 6.93724 6.28954C6.93724 6.43922 6.99316 6.56465 7.10591 6.66918L9.94886 9.30487C10.1689 9.51141 10.5288 9.51308 10.7543 9.30989C13.7876 6.56883 17.9312 4.88139 22.5005 4.88139C27.067 4.88139 31.2115 6.56883 34.2439 9.30905C34.4685 9.51308 34.8293 9.51057 35.052 9.30403L37.8923 6.66834C38.0041 6.56465 38.061 6.43922 38.061 6.28954ZM16.5304 13.8646C16.6044 13.7459 16.6098 13.6113 16.543 13.4875L16.0316 12.561C15.9469 12.4072 15.9775 12.229 16.111 12.1061L17.1257 11.1654C17.2565 11.0442 17.4504 11.0157 17.6164 11.0943L18.6157 11.5659C18.7465 11.6278 18.8917 11.6253 19.0198 11.5542C19.552 11.2674 20.1292 11.045 20.738 10.8953C20.8814 10.8594 20.9861 10.7674 21.0321 10.6369L21.3802 9.64854C21.4361 9.48465 21.5949 9.37845 21.7816 9.37845H23.2157C23.4024 9.37845 23.5611 9.48549 23.6198 9.64854L23.9652 10.6369C24.0112 10.7674 24.1159 10.8594 24.2593 10.8953C24.8699 11.045 25.4453 11.2674 25.9775 11.5542C26.1056 11.6253 26.2508 11.6278 26.3843 11.5659L27.3836 11.0943C27.5496 11.0157 27.7417 11.0442 27.8743 11.1654L28.889 12.1061C29.0198 12.229 29.0504 12.4072 28.9657 12.561L28.457 13.4875C28.3875 13.6104 28.3929 13.7459 28.4669 13.8646C28.7789 14.358 29.0189 14.8907 29.1803 15.4551C29.2164 15.588 29.3183 15.6876 29.459 15.7302L30.5251 16.0505C30.7019 16.1048 30.8165 16.252 30.8165 16.4251V17.7546C30.8165 17.9277 30.701 18.0749 30.5251 18.1267L29.459 18.4487C29.3156 18.4913 29.2164 18.5883 29.1803 18.7213C29.0189 19.2857 28.7789 19.8209 28.4669 20.3117C28.3929 20.433 28.3875 20.5651 28.457 20.6888L28.9657 21.6154C29.0504 21.7692 29.0198 21.9498 28.889 22.0702L27.8743 23.011C27.7417 23.1339 27.5496 23.1623 27.3836 23.0845L26.3843 22.6104C26.2517 22.5485 26.1056 22.5536 25.9775 22.6221C25.4453 22.9089 24.8708 23.1339 24.2593 23.2811C24.1159 23.317 24.0112 23.409 23.9652 23.5394L23.6198 24.5278C23.5611 24.6934 23.4024 24.8004 23.2157 24.8004H21.7816C21.5949 24.8004 21.4361 24.6934 21.3802 24.5278L21.0321 23.5394C20.9861 23.409 20.8814 23.317 20.738 23.2811C20.1292 23.1339 19.552 22.9089 19.0198 22.6221C18.8917 22.5536 18.7465 22.5485 18.6157 22.6104L17.6164 23.0845C17.4504 23.1632 17.2556 23.1347 17.1257 23.011L16.111 22.0702C15.9784 21.949 15.9478 21.7692 16.0316 21.6154L16.543 20.6888C16.6098 20.5659 16.6044 20.433 16.5304 20.3117C16.221 19.8209 15.9784 19.2857 15.8197 18.7213C15.7809 18.5883 15.6817 18.4913 15.541 18.4487L14.4749 18.1267C14.2963 18.0749 14.1808 17.9277 14.1808 17.7546V16.4251C14.1808 16.252 14.2963 16.1048 14.4749 16.0505L15.541 15.7302C15.6817 15.6876 15.7809 15.588 15.8197 15.4551C15.9784 14.8915 16.221 14.358 16.5304 13.8646ZM18.9107 17.089C18.9107 18.9287 20.5162 20.4171 22.5005 20.4171C24.482 20.4171 26.0902 18.9287 26.0902 17.089C26.0902 15.2519 24.482 13.761 22.5005 13.761C20.5162 13.761 18.9107 15.2519 18.9107 17.089ZM26.1588 27.0866H23.7199L24.4613 34.456C24.4712 34.5488 24.4541 34.6291 24.4054 34.7093L22.9045 37.1719C22.8197 37.3116 22.6718 37.3902 22.5005 37.3902C22.3264 37.3902 22.1785 37.3116 22.0937 37.1719L20.5955 34.7093C20.5468 34.6291 20.5261 34.548 20.5369 34.456L21.2783 27.0866H18.8394C14.1475 27.0866 10.3078 30.6446 10.3078 34.9937V41.6991C10.3078 42.3605 10.8932 42.9032 11.6067 42.9032H15.7484V35.5363C15.7484 35.1567 16.0831 34.8465 16.4925 34.8465C16.9038 34.8465 17.2394 35.1567 17.2394 35.5363V42.9041H27.7624V35.5372C27.7624 35.1575 28.0953 34.8473 28.5066 34.8473C28.9179 34.8473 29.2507 35.1575 29.2507 35.5372V42.9041H33.3924C34.1059 42.9041 34.6913 42.3614 34.6913 41.7V34.9945C34.6913 30.6446 30.8507 27.0866 26.1588 27.0866Z" fill="url(#paint0_linear_173_14892)"/>
<defs>
<linearGradient id="paint0_linear_173_14892" x1="22.5" y1="0.0908203" x2="22.5" y2="42.9041" gradientUnits="userSpaceOnUse">
<stop stop-color="white"/>
<stop offset="1" stop-color="#318DB5"/>
</linearGradient>
</defs>
</svg>
