<svg width="41" height="36" viewBox="0 0 41 36" fill="none" xmlns="http://www.w3.org/2000/svg">
<path d="M37.1612 0H18.8388C16.7185 0 15 1.69665 15 3.78936V12.6982C15.9685 13.1734 17.015 13.6872 17.9918 14.1665L19.4863 11.2148C20.3912 9.4299 22.5972 8.70469 24.4047 9.59636C26.2161 10.4912 26.9502 12.6627 26.0434 14.4511L23.3792 19.7119C23.4499 20.4082 23.3872 21.1102 23.1883 21.7895H24.9472L20.3082 34.3816C20.033 35.1284 20.565 36 21.4568 36C21.9554 36 22.4244 35.6963 22.6045 35.2057L27.5471 21.7895H28.4033L33.3962 35.2098C33.5778 35.6979 34.0456 36 34.5438 36C35.3771 36 35.988 35.1784 35.6899 34.3784L31.0063 21.7895H37.1612C39.2812 21.7895 41 20.0929 41 18.0002V3.78936C41 1.69665 39.2812 0 37.1612 0ZM34.5432 16.6226H29.0613C28.3867 16.6226 27.8395 16.0824 27.8395 15.4165C27.8395 14.7501 28.3867 14.2105 29.0613 14.2105H34.5432C35.2184 14.2105 35.765 14.7501 35.765 15.4165C35.765 16.0824 35.2184 16.6226 34.5432 16.6226ZM34.5432 12.1008H29.0613C28.3867 12.1008 27.8395 11.5612 27.8395 10.8948C27.8395 10.2289 28.3867 9.6887 29.0613 9.6887H34.5432C35.2184 9.6887 35.765 10.2289 35.765 10.8948C35.765 11.5612 35.2184 12.1008 34.5432 12.1008ZM34.5432 7.57966H21.4568C20.7816 7.57966 20.235 7.03944 20.235 6.3736C20.235 5.70775 20.7816 5.16753 21.4568 5.16753H34.5432C35.2184 5.16753 35.765 5.70775 35.765 6.3736C35.765 7.03944 35.2184 7.57966 34.5432 7.57966Z" fill="url(#paint0_linear_3220_5418)"/>
<path d="M21.3952 21.0917C21.6099 20.4453 21.6083 19.77 21.4271 19.1539L24.3744 13.0947C24.6676 12.4915 24.4301 11.7581 23.8434 11.4567C23.257 11.1549 22.5435 11.3994 22.25 12.0026L19.7363 17.1703C18.2339 16.4012 15.9512 15.2344 14.1123 14.2942C12.4015 13.4196 11.1805 12.6353 9.09728 12.6353H8.04794C9.67004 12.6353 11.1177 11.8678 12.0653 10.6666C12.7884 9.75253 13.2207 8.58762 13.2207 7.3181C13.2207 4.3807 10.9049 2 8.04732 2C5.19094 2 2.87516 4.3807 2.87516 7.3181C2.87516 8.72878 3.40957 10.0107 4.28139 10.962C5.22404 11.9924 6.56285 12.6353 8.04701 12.6356C6.0572 12.6356 4.11192 13.4644 2.71249 14.9069C1.28584 16.3697 0.5 18.3187 0.5 20.3948V24.3178C0.5 26.0067 1.56666 27.4437 3.04402 27.955V34.7791C3.04402 35.4535 3.57565 36 4.2316 36H11.8637C12.5196 36 13.0512 35.4535 13.0512 34.7791V21.0618C14.1773 21.6405 15.6565 22.4006 16.8534 23.0162C17.6924 23.4473 18.6728 23.4861 19.5471 23.1204C20.4189 22.7516 21.0909 22.0175 21.3906 21.106C21.3921 21.1012 21.3937 21.0965 21.3952 21.0917Z" fill="url(#paint1_linear_3220_5418)"/>
<defs>
<linearGradient id="paint0_linear_3220_5418" x1="28" y1="0" x2="28" y2="36" gradientUnits="userSpaceOnUse">
<stop stop-color="#E8E1E1"/>
<stop offset="1" stop-color="#00A3FF" stop-opacity="0"/>
</linearGradient>
<linearGradient id="paint1_linear_3220_5418" x1="12.5" y1="2" x2="12.5" y2="36" gradientUnits="userSpaceOnUse">
<stop stop-color="#E8E1E1"/>
<stop offset="1" stop-color="#00A3FF" stop-opacity="0"/>
</linearGradient>
</defs>
</svg>
