<svg width="24" height="24" viewBox="0 0 24 24" fill="none" xmlns="http://www.w3.org/2000/svg">
<path d="M23.1889 4.72717L15.917 11.9998L23.1889 19.2722C24.2706 20.3542 24.2706 22.107 23.1889 23.1891C22.6485 23.7296 21.9399 24 21.2317 24C20.5223 24 19.8136 23.73 19.2736 23.1891L12.0001 15.916L4.72717 23.189C4.18679 23.7295 3.47815 23.9999 2.76931 23.9999C2.06068 23.9999 1.35252 23.7299 0.811658 23.189C-0.270002 22.1075 -0.270002 20.3546 0.811658 19.2721L8.08336 11.9998L0.811245 4.72717C-0.270415 3.64551 -0.270415 1.89228 0.811245 0.810625C1.8927 -0.270208 3.64489 -0.270208 4.72676 0.810625L12 8.08329L19.2728 0.810625C20.3548 -0.270208 22.1072 -0.270208 23.1885 0.810625C24.2706 1.89228 24.2706 3.64551 23.1889 4.72717Z" fill="white"/>
</svg>
